<svg xmlns="http://www.w3.org/2000/svg" xmlns:xlink="http://www.w3.org/1999/xlink" width="500" zoomAndPan="magnify" viewBox="0 0 375 374.999991" height="500" preserveAspectRatio="xMidYMid meet" version="1.0"><path fill="#091c3e" d="M -67.617188 -78.277344 L -67.617188 669.472656 L 442.222656 669.472656 L 442.222656 -78.277344 Z M 368.320312 199.136719 C 341.691406 255.21875 311.769531 304.121094 273.023438 351.675781 C 219.019531 359.902344 166.359375 358.707031 108.3125 353.171875 L 146.164062 292.457031 C 176.53125 294.25 206.898438 294.101562 237.269531 291.707031 C 258.960938 262.394531 278.109375 231.289062 294.265625 198.6875 C 281.402344 173.265625 266.742188 148.886719 250.285156 125.707031 L 287.984375 65.4375 C 319.25 106.714844 347.675781 150.683594 368.320312 199.136719 Z M 316.855469 441.707031 L 314.164062 429.890625 L 334.507812 418.675781 L 342.4375 418.675781 L 342.4375 474.160156 L 329.125 474.160156 L 329.125 434.976562 Z M 141.226562 463.242188 C 144.21875 463.390625 147.210938 462.792969 149.902344 461.449219 L 149.902344 447.238281 L 162.769531 445.59375 L 162.769531 468.175781 C 159.925781 470.570312 153.042969 475.054688 140.476562 475.054688 C 121.925781 475.054688 109.0625 462.34375 109.0625 446.492188 C 109.0625 430.640625 121.777344 418.078125 140.777344 418.078125 C 147.808594 417.777344 154.839844 419.125 161.273438 421.964844 L 157.832031 434.078125 C 152.59375 431.539062 146.910156 430.339844 141.226562 430.640625 C 130.753906 430.640625 123.574219 436.773438 123.574219 446.640625 C 123.574219 456.511719 131.351562 463.242188 141.226562 463.242188 Z M 138.234375 187.621094 C 138.234375 160.554688 160.226562 138.570312 187.300781 138.570312 C 214.378906 138.71875 236.371094 160.554688 236.371094 187.621094 C 236.371094 214.691406 214.378906 236.671875 187.300781 236.671875 C 160.226562 236.671875 138.234375 214.691406 138.234375 187.621094 Z M 101.582031 23.714844 C 156.1875 17.132812 211.539062 16.6875 266.292969 22.21875 L 228.292969 82.9375 C 197.925781 81.140625 167.554688 81.292969 137.1875 83.683594 C 115.34375 112.847656 96.195312 143.953125 80.039062 176.703125 C 93.203125 201.976562 107.863281 226.355469 124.171875 249.683594 L 86.472656 309.953125 C 53.859375 266.882812 27.378906 224.859375 6.285156 176.554688 C 31.417969 121.667969 63.433594 70.375 101.582031 23.714844 Z M 96.34375 418.824219 L 96.34375 474.308594 L 82.433594 474.308594 L 82.433594 418.824219 Z M 72.257812 462.792969 L 72.257812 474.457031 L 31.867188 474.457031 L 31.867188 418.976562 L 45.929688 418.976562 L 45.929688 462.941406 Z M 50.417969 571.816406 L 41.890625 571.816406 L 41.890625 566.28125 C 37.851562 570.46875 32.316406 572.710938 26.632812 572.710938 C 14.214844 572.710938 4.789062 563.738281 4.789062 549.980469 L 4.789062 513.789062 L 13.617188 513.789062 L 13.617188 549.53125 C 13.617188 558.804688 19.75 564.785156 27.679688 564.785156 C 35.609375 564.785156 41.890625 558.65625 41.890625 549.382812 L 41.890625 513.789062 L 50.566406 513.789062 Z M 81.386719 572.863281 C 75.699219 572.863281 70.316406 570.617188 66.425781 566.582031 L 66.425781 571.816406 L 58.195312 571.816406 L 58.195312 513.941406 L 66.425781 513.941406 L 66.425781 535.027344 C 70.316406 530.988281 75.699219 528.746094 81.386719 528.746094 L 83.628906 528.746094 C 95.746094 529.34375 105.171875 539.660156 104.574219 551.777344 C 103.824219 564.1875 93.503906 573.460938 81.386719 572.863281 Z M 129.855469 565.535156 C 134.644531 565.683594 139.28125 563.292969 141.972656 559.402344 L 147.957031 563.738281 C 143.769531 569.570312 136.886719 572.863281 129.707031 572.710938 L 128.808594 572.710938 C 116.839844 572.5625 107.117188 562.691406 107.265625 550.578125 C 107.265625 538.617188 116.839844 528.894531 128.808594 528.746094 C 140.925781 528.746094 149.902344 538.167969 149.902344 550.730469 L 149.902344 553.269531 L 115.941406 553.269531 C 116.988281 560.300781 122.972656 565.382812 129.855469 565.535156 Z M 176.980469 537.121094 L 173.539062 537.121094 C 168.152344 537.121094 164.265625 541.308594 164.265625 547.886719 L 164.265625 571.816406 L 155.886719 571.816406 L 155.886719 529.640625 L 163.816406 529.640625 L 163.816406 534.726562 L 164.113281 534.726562 C 166.207031 531.289062 169.949219 529.195312 173.988281 529.34375 L 176.980469 529.34375 Z M 175.335938 449.933594 L 175.335938 418.824219 L 189.246094 418.824219 L 189.246094 450.980469 C 189.546875 457.410156 194.632812 462.496094 201.066406 462.792969 C 207.949219 463.09375 213.78125 457.859375 214.082031 450.980469 L 214.230469 418.824219 L 228.144531 418.824219 L 228.144531 449.933594 C 228.144531 466.382812 217.523438 475.054688 201.8125 475.054688 C 185.957031 475.054688 175.335938 466.53125 175.335938 449.933594 Z M 238.316406 523.808594 L 208.695312 523.808594 L 208.695312 537.867188 L 237.566406 537.867188 L 237.566406 547.4375 L 208.695312 547.4375 L 208.695312 561.796875 L 238.316406 561.796875 L 238.316406 571.816406 L 197.625 571.816406 L 197.625 513.789062 L 238.316406 513.789062 Z M 243.253906 418.824219 L 283.945312 418.824219 L 283.945312 430.492188 L 257.164062 430.492188 L 257.164062 440.511719 L 278.859375 440.511719 L 278.859375 451.425781 L 257.164062 451.425781 L 257.316406 462.644531 L 284.84375 462.644531 L 284.84375 474.308594 L 243.402344 474.308594 L 243.402344 418.824219 Z M 289.929688 571.816406 L 279.007812 571.816406 L 279.007812 567.925781 C 275.117188 571.066406 270.332031 572.863281 265.394531 572.863281 L 264.496094 572.863281 C 253.277344 571.816406 244.449219 562.691406 244 551.476562 C 243.402344 539.0625 253.125 528.59375 265.542969 527.996094 C 270.480469 527.996094 275.417969 529.792969 279.15625 532.933594 L 279.15625 529.042969 L 289.929688 528.894531 Z M 325.832031 538.765625 L 313.714844 538.765625 L 313.714844 558.804688 C 313.714844 561.046875 315.359375 562.09375 317.753906 562.09375 L 325.832031 562.09375 L 325.832031 571.816406 L 314.164062 571.816406 C 306.832031 571.816406 302.792969 567.328125 302.792969 561.496094 L 302.792969 538.765625 L 294.566406 538.765625 L 294.566406 529.042969 L 302.792969 529.042969 L 302.792969 516.929688 L 313.566406 516.929688 L 313.566406 529.042969 L 325.683594 529.042969 Z M 350.667969 573.011719 C 337.203125 573.011719 330.621094 567.03125 329.273438 558.207031 L 340.042969 558.207031 C 341.390625 562.992188 344.980469 564.335938 351.265625 564.335938 C 356.050781 564.335938 359.195312 562.691406 359.195312 560 C 359.195312 558.355469 357.996094 557.160156 353.957031 556.410156 L 343.636719 554.019531 C 334.210938 552.074219 329.871094 548.035156 329.871094 541.753906 C 329.871094 532.78125 337.800781 528.148438 349.019531 528.148438 C 362.035156 528.148438 368.46875 533.980469 369.066406 542.953125 L 358.296875 542.953125 C 357.25 538.167969 353.507812 536.820312 348.421875 536.820312 C 343.785156 536.820312 341.09375 538.316406 341.09375 541.007812 C 341.09375 542.953125 342.886719 544 348.125 544.894531 L 357.398438 546.839844 C 366.074219 548.785156 370.265625 553.121094 370.265625 558.953125 C 370.113281 567.03125 363.082031 573.011719 350.667969 573.011719 Z M 350.667969 573.011719 " fill-opacity="1" fill-rule="nonzero"/><path fill="#cdfb0a" d="M 294.417969 198.835938 C 278.109375 231.441406 259.109375 262.546875 237.417969 291.859375 C 207.050781 294.101562 176.679688 294.398438 146.3125 292.605469 L 108.464844 353.324219 C 166.507812 358.855469 219.167969 360.203125 273.171875 351.828125 C 311.917969 304.269531 341.839844 255.367188 368.46875 199.285156 C 347.824219 150.980469 319.550781 106.863281 288.28125 65.589844 L 250.582031 125.855469 C 266.890625 148.886719 281.550781 173.414062 294.417969 198.835938 Z M 124.320312 249.535156 C 108.015625 226.207031 93.351562 201.828125 80.1875 176.554688 C 96.34375 143.953125 115.496094 112.847656 137.335938 83.535156 C 167.703125 81.292969 198.074219 80.992188 228.441406 82.785156 L 266.441406 22.070312 C 211.6875 16.535156 156.484375 16.984375 101.730469 23.566406 C 63.582031 70.226562 31.566406 121.519531 6.433594 176.40625 C 27.527344 224.558594 54.007812 266.734375 86.621094 309.804688 Z M 124.320312 249.535156 " fill-opacity="1" fill-rule="nonzero"/><path fill="#ffffff" d="M 187.300781 236.671875 C 214.378906 236.671875 236.371094 214.691406 236.371094 187.621094 C 236.222656 160.554688 214.378906 138.570312 187.300781 138.570312 C 160.226562 138.570312 138.234375 160.554688 138.234375 187.621094 C 138.234375 214.691406 160.226562 236.671875 187.300781 236.671875 Z M 187.300781 236.671875 " fill-opacity="1" fill-rule="nonzero"/></svg>